{
	"asset":{
		"version":"2.0",
		"generator":"Created using the official Cinema 4D glTF Exporter 1.000x284978"
	},
	"buffers":[{
		"uri":"data:application/octet-stream;base64,",
		"byteLength":586656
	}],
	"scenes":[{
		"nodes":[0]
	}],
	"nodes":[{
		"name":"untitled:Mesh",
		"mesh":0
	}],
	"materials":[{
		"pbrMetallicRoughness":{
			"baseColorFactor":[1.0,
			1.0,
			1.0,
			1.0],
			"metallicFactor":1.0,
			"roughnessFactor":1.0
		},
		"emissiveFactor":[0.0,
		0.0,
		0.0],
		"alphaMode":"OPAQUE",
		"doubleSided":false,
		"name":""
	}],
	"meshes":[{
		"name":"untitled:Mesh",
		"primitives":[{
			"indices":0,
			"attributes":{
				"POSITION":1,
				"NORMAL":2,
				"TEXCOORD_0":3
			},
			"material":0
		}]
	}],
	"accessors":[{
		"bufferView":0,
		"type":"SCALAR",
		"componentType":5123,
		"count":40320,
		"byteOffset":0,
		"min":[0],
		"max":[15812]
	},
	{
		"bufferView":1,
		"type":"VEC3",
		"componentType":5126,
		"count":15813,
		"byteOffset":0,
		"min":[-364.0320129394531,
		-99.810302734375,
		-562.5910034179688],
		"max":[223.43443298339845,
		626.3916015625,
		602.9705810546875]
	},
	{
		"bufferView":1,
		"type":"VEC3",
		"componentType":5126,
		"count":15813,
		"byteOffset":12,
		"min":[-0.9999991655349731,
		-0.9999991059303284,
		-1.0],
		"max":[0.999996542930603,
		1.0,
		0.9999993443489075]
	},
	{
		"bufferView":1,
		"type":"VEC2",
		"componentType":5126,
		"count":15813,
		"byteOffset":24,
		"min":[0.002107999986037612,
		-0.9961140155792236],
		"max":[0.9971830248832703,
		-0.0024390220642089845]
	}],
	"bufferViews":[{
		"buffer":0,
		"byteOffset":0,
		"byteLength":80640,
		"target":34963
	},
	{
		"buffer":0,
		"byteStride":32,
		"byteOffset":80640,
		"byteLength":506016,
		"target":34962
	}]
}