{"accessors" : [{"bufferView" : 0, "byteOffset" : 0, "componentType" : 5125, "count" : 293742, "type" : "SCALAR", "max" : [293741], "min" : [0]}, {"bufferView" : 1, "byteOffset" : 0, "componentType" : 5126, "count" : 293742, "type" : "VEC3", "max" : [2.145129919052124, 2.209567070007324, 2.65802001953125], "min" : [-0.08075200021266937, -1.8414959907531738, -2.6926169395446777]}, {"bufferView" : 0, "byteOffset" : 1174968, "componentType" : 5125, "count" : 296106, "type" : "SCALAR", "max" : [296105], "min" : [0]}, {"bufferView" : 2, "byteOffset" : 0, "componentType" : 5126, "count" : 296106, "type" : "VEC3", "max" : [0.08866400271654129, 2.155427932739258, 2.6976211071014404], "min" : [-2.1798760890960693, -1.753702998161316, -2.6648800373077393]}], "asset" : {"generator" : "Aspose.3D 20.11", "version" : "2.0"}, "buffers" : [{"uri" : "buffer.bin", "byteLength" : 9437580}], "bufferViews" : [{"buffer" : 0, "byteOffset" : 0, "byteLength" : 2359392, "target" : 34963}, {"buffer" : 0, "byteOffset" : 2359396, "byteLength" : 3524904, "byteStride" : 12, "target" : 34962}, {"buffer" : 0, "byteOffset" : 5884304, "byteLength" : 3553272, "byteStride" : 12, "target" : 34962}], "meshes" : [{"primitives" : [{"attributes" : {"POSITION" : 1}, "indices" : 0, "mode" : 4}]}, {"primitives" : [{"attributes" : {"POSITION" : 3}, "indices" : 2, "mode" : 4}]}], "nodes" : [{"mesh" : 0, "name" : "rh.pial.asc"}, {"mesh" : 1, "name" : "lh.pial.asc"}], "scene" : 0, "scenes" : [{"nodes" : [0, 1]}]}