{
  "asset": {
    "generator": "Microsoft GLTF Exporter 2.8.3.32",
    "version": "2.0"
  },
  "accessors": [
    {
      "bufferView": 0,
      "componentType": 5126,
      "count": 5028,
      "type": "VEC3",
      "max": [
        25695.248046875,
        8100,
        8100
      ],
      "min": [
        -4912,
        -8100,
        -8100
      ]
    },
    {
      "bufferView": 1,
      "componentType": 5126,
      "count": 5028,
      "type": "VEC3"
    },
    {
      "bufferView": 2,
      "componentType": 5126,
      "count": 5028,
      "type": "VEC2"
    }
  ],
  "bufferViews": [
    {
      "buffer": 0,
      "byteOffset": 0,
      "byteLength": 60336,
      "target": 34962
    },
    {
      "buffer": 0,
      "byteOffset": 60336,
      "byteLength": 60336,
      "target": 34962
    },
    {
      "buffer": 0,
      "byteOffset": 120672,
      "byteLength": 40224,
      "target": 34962
    }
  ],
  "buffers": [
    {
      "uri": "Spinner_data.bin",
      "byteLength": 160896
    }
  ],
  "materials": [
    {
      "pbrMetallicRoughness": {},
      "doubleSided": true,
      "extensions": {
        "KHR_materials_pbrSpecularGlossiness": {
          "diffuseFactor": [
            0.2195197343826294,
            0.2195197343826294,
            0.2195197343826294,
            1
          ],
          "specularFactor": [
            0,
            0,
            0
          ]
        }
      }
    }
  ],
  "meshes": [
    {
      "primitives": [
        {
          "attributes": {
            "NORMAL": 1,
            "POSITION": 0,
            "TEXCOORD_0": 2
          },
          "material": 0
        }
      ]
    }
  ],
  "nodes": [
    {
      "mesh": 0,
      "name": "Asset3DLoader.sceneRoot"
    }
  ],
  "scenes": [
    {
      "nodes": [
        0
      ]
    }
  ],
  "scene": 0,
  "extensionsUsed": [
    "KHR_materials_pbrSpecularGlossiness"
  ],
  "extensionsRequired": [
    "KHR_materials_pbrSpecularGlossiness"
  ]
}